HIERARCHY
ROOT Hips
{
	OFFSET 0.000000 0.000000 0.000000
	CHANNELS 6 Xposition Yposition Zposition Zrotation Yrotation Xrotation 
	JOINT LHipJoint
	{
		OFFSET 0.000000 0.000000 0.000000
		CHANNELS 3 Zrotation Yrotation Xrotation
		JOINT LeftUpLeg
		{
			OFFSET 1.363060 -1.794630 0.839290
			CHANNELS 3 Zrotation Yrotation Xrotation
			JOINT LeftLeg
			{
				OFFSET 2.448110 -6.726130 0.000000
				CHANNELS 3 Zrotation Yrotation Xrotation
				JOINT LeftFoot
				{
					OFFSET 2.562200 -7.039590 0.000000
					CHANNELS 3 Zrotation Yrotation Xrotation
					JOINT LeftToeBase
					{
						OFFSET 0.157640 -0.433110 2.322550
						CHANNELS 3 Zrotation Yrotation Xrotation
						End Site
						{
							OFFSET 0.000000 0.000000 0.000000
						}
					}
				}
			}
		}
	}
	JOINT RHipJoint
	{
		OFFSET 0.000000 0.000000 0.000000
		CHANNELS 3 Zrotation Yrotation Xrotation
		JOINT RightUpLeg
		{
			OFFSET -1.305520 -1.794630 0.839290
			CHANNELS 3 Zrotation Yrotation Xrotation
			JOINT RightLeg
			{
				OFFSET -2.542530 -6.985550 0.000000
				CHANNELS 3 Zrotation Yrotation Xrotation
				JOINT RightFoot
				{
					OFFSET -2.568260 -7.056230 0.000000
					CHANNELS 3 Zrotation Yrotation Xrotation
					JOINT RightToeBase
					{
						OFFSET -0.164730 -0.452590 2.363150
						CHANNELS 3 Zrotation Yrotation Xrotation
						End Site
						{
							OFFSET 0.000000 0.000000 0.000000
						}
					}
				}
			}
		}
	}
	JOINT LowerBack
	{
		OFFSET 0.000000 0.000000 0.000000
		CHANNELS 3 Zrotation Yrotation Xrotation
		JOINT Spine
		{
			OFFSET 0.028270 2.035590 -0.193380
			CHANNELS 3 Zrotation Yrotation Xrotation
			JOINT Spine1
			{
				OFFSET 0.056720 2.048850 -0.042750
				CHANNELS 3 Zrotation Yrotation Xrotation
				JOINT Neck
				{
					OFFSET 0.000000 0.000000 0.000000
					CHANNELS 3 Zrotation Yrotation Xrotation
					JOINT Neck1
					{
						OFFSET -0.054170 1.746240 0.172020
						CHANNELS 3 Zrotation Yrotation Xrotation
						JOINT Head
						{
							OFFSET 0.104070 1.761360 -0.123970
							CHANNELS 3 Zrotation Yrotation Xrotation
							End Site
							{
								OFFSET 0.000000 0.000000 0.000000
							}
						}
					}
				}
				JOINT LeftShoulder
				{
					OFFSET 0.000000 0.000000 0.000000
					CHANNELS 3 Zrotation Yrotation Xrotation
					JOINT LeftArm
					{
						OFFSET 3.362410 1.200890 -0.311210
						CHANNELS 3 Zrotation Yrotation Xrotation
						JOINT LeftForeArm
						{
							OFFSET 4.983000 -0.000000 -0.000000
							CHANNELS 3 Zrotation Yrotation Xrotation
							JOINT LeftHand
							{
								OFFSET 3.483560 -0.000000 -0.000000
								CHANNELS 3 Zrotation Yrotation Xrotation
								JOINT LeftFingerBase
								{
									OFFSET 0.000000 0.000000 0.000000
									CHANNELS 3 Zrotation Yrotation Xrotation
									JOINT LeftHandIndex1
									{
										OFFSET 0.715260 -0.000000 -0.000000
										CHANNELS 3 Zrotation Yrotation Xrotation
										End Site
										{
											OFFSET 0.000000 0.000000 0.000000
										}
									}
								}
								JOINT LThumb
								{
									OFFSET 0.000000 0.000000 0.000000
									CHANNELS 3 Zrotation Yrotation Xrotation
									End Site
									{
										OFFSET 0.000000 0.000000 0.000000
									}
								}
							}
						}
					}
				}
				JOINT RightShoulder
				{
					OFFSET 0.000000 0.000000 0.000000
					CHANNELS 3 Zrotation Yrotation Xrotation
					JOINT RightArm
					{
						OFFSET -3.136600 1.374050 -0.404650
						CHANNELS 3 Zrotation Yrotation Xrotation
						JOINT RightForeArm
						{
							OFFSET -5.241900 -0.000000 -0.000000
							CHANNELS 3 Zrotation Yrotation Xrotation
							JOINT RightHand
							{
								OFFSET -3.444170 -0.000000 -0.000000
								CHANNELS 3 Zrotation Yrotation Xrotation
								JOINT RightFingerBase
								{
									OFFSET 0.000000 0.000000 0.000000
									CHANNELS 3 Zrotation Yrotation Xrotation
									JOINT RightHandIndex1
									{
										OFFSET -0.622530 -0.000000 -0.000000
										CHANNELS 3 Zrotation Yrotation Xrotation
										End Site
										{
											OFFSET 0.000000 0.000000 0.000000
										}
									}
								}
								JOINT RThumb
								{
									OFFSET 0.000000 0.000000 0.000000
									CHANNELS 3 Zrotation Yrotation Xrotation
									End Site
									{
										OFFSET 0.000000 0.000000 0.000000
									}
								}
							}
						}
					}
				}
			}
		}
	}
}
MOTION
Frames: 6
Frame Time: 0.008333
-19.178207 16.158294 -0.084101 130.847081 85.169356 145.803330 -7.635120 2.109100 8.660598 -15.448176 -14.773707 -49.387446 -3.109110 0.285284 15.660534 -0.018537 1.776276 9.341339 1.328600 -0.000001 -33.095900 10.798922 -5.644182 1.105023 4.516357 -11.251938 12.514640 1.032550 -1.297590 13.343101 0.520841 8.983726 19.032601 3.639000 0.000000 -82.970800 -7.007851 4.485447 -11.518574 -3.188252 4.860284 -5.180699 -7.891163 4.832193 1.632919 11.691984 -3.658214 -8.453584 -3.404919 -0.273016 -0.216640 0.000000 0.000000 0.000000 1.035991 30.202817 1.546798 -43.147540 17.594891 -14.876335 -4.474958 -20.923081 0.008749 7.814921 1.064109 0.080757 -0.191185 -0.083857 -0.000000 0.000000 0.000000 0.000000 0.000000 0.000000 0.000000 16.578058 6.944083 -1.547192 69.936189 27.789843 32.609465 1.118021 76.007109 0.006674 -0.046780 8.462176 -0.002724 0.017641 -0.521730 -0.000000 0.000000 0.000000 0.000000 0.000000 0.000000 0.000000 
-18.964039 16.199607 -0.072761 129.331765 84.618785 144.079301 -7.470875 2.223129 8.674374 -16.028435 -15.207745 -48.607617 -3.071982 0.369200 16.510313 0.087452 2.329801 8.951014 1.475000 -0.000000 -32.482300 11.109892 -5.622575 1.059315 3.612372 -11.682957 11.492825 0.662403 -1.502651 15.872085 0.323546 9.572030 22.399122 4.495100 -0.000000 -83.575100 -7.532532 4.364026 -11.478071 -3.299579 4.812859 -5.183553 -7.899741 4.786434 1.577838 11.696911 -3.716561 -8.457884 -3.414989 -0.273436 -0.221838 0.000000 0.000000 0.000000 0.986417 30.055361 1.535182 -42.961782 16.748034 -15.177585 -4.468594 -20.789319 0.008651 8.098325 1.044170 0.081855 -0.188984 -0.079497 -0.000000 0.000000 0.000000 0.000000 0.000000 0.000000 0.000000 16.673790 6.847752 -1.590958 70.723167 26.960039 32.948758 1.146285 75.207928 0.007379 0.023059 8.669269 0.002767 0.017851 -0.520436 -0.000000 0.000000 0.000000 0.000000 0.000000 0.000000 0.000000 
-18.755415 16.241848 -0.062832 128.153125 84.066253 142.664143 -7.324557 2.310370 8.673551 -16.584687 -15.622158 -47.716174 -3.045847 0.435318 17.277506 0.188008 2.816438 8.370503 1.581100 -0.000000 -31.845800 11.413802 -5.556102 0.977139 2.693719 -12.263829 10.357520 0.310204 -1.658767 18.577801 0.086364 10.144574 25.706677 5.395700 0.000000 -83.063200 -8.027750 4.237537 -11.377119 -3.399318 4.756255 -5.173408 -7.895777 4.731398 1.520940 11.675115 -3.763193 -8.461410 -3.424892 -0.273685 -0.227137 0.000000 0.000000 0.000000 0.895565 29.891949 1.523772 -42.883180 15.871028 -15.473068 -4.459853 -20.698753 0.008435 8.361681 1.036790 0.083554 -0.186532 -0.075081 -0.000000 0.000000 0.000000 0.000000 0.000000 0.000000 0.000000 16.743672 6.751903 -1.635132 71.487756 26.123413 33.215717 1.173953 74.281947 0.007885 0.074047 8.855892 0.006848 0.018095 -0.517412 -0.000000 0.000000 0.000000 0.000000 0.000000 0.000000 0.000000 
-18.552642 16.284681 -0.054291 127.158465 83.519983 141.403753 -7.194347 2.376010 8.658597 -17.129798 -16.006080 -46.700749 -3.034513 0.482907 17.928091 0.280100 3.228640 7.648960 1.645099 -0.000000 -31.161700 11.706056 -5.441455 0.858391 1.759671 -12.984349 9.132497 -0.005720 -1.765179 21.425811 -0.179514 10.568419 28.819504 6.226100 0.000000 -81.412901 -8.492826 4.107971 -11.217545 -3.487938 4.691591 -5.150864 -7.881446 4.668204 1.462069 11.631551 -3.796844 -8.462962 -3.436259 -0.273933 -0.232215 0.000000 0.000000 0.000000 0.760406 29.711383 1.511552 -42.904521 14.979701 -15.740210 -4.449828 -20.664096 0.008105 8.587542 1.044964 0.086050 -0.183873 -0.070810 -0.000000 0.000000 0.000000 0.000000 0.000000 0.000000 0.000000 16.800583 6.660428 -1.676334 72.219696 25.288505 33.405372 1.201353 73.229899 0.008199 0.105951 9.015202 0.009616 0.018441 -0.512600 -0.000000 0.000000 0.000000 0.000000 0.000000 0.000000 0.000000 
-18.355640 16.327971 -0.047577 126.335455 83.000606 140.291870 -7.085577 2.423700 8.628640 -17.660468 -16.329964 -45.577568 -3.037881 0.513245 18.451280 0.359723 3.549801 6.833432 1.665000 -0.000000 -30.413400 11.972899 -5.284649 0.710224 0.849443 -13.799722 7.835853 -0.270727 -1.830940 24.377659 -0.460241 10.649928 31.592064 6.813000 -0.000000 -78.734000 -8.908095 3.978962 -11.010837 -3.561930 4.619555 -5.117759 -7.859806 4.597391 1.402604 11.570027 -3.816839 -8.463087 -3.450720 -0.274347 -0.237045 0.000000 0.000000 0.000000 0.570775 29.521047 1.495840 -43.011337 14.081059 -15.954353 -4.439739 -20.689888 0.007690 8.763447 1.069077 0.089246 -0.181071 -0.066904 -0.000000 0.000000 0.000000 0.000000 0.000000 0.000000 0.000000 16.855118 6.576369 -1.712296 72.907830 24.460453 33.517003 1.228870 72.056059 0.008342 0.119914 9.141863 0.010774 0.018927 -0.505939 -0.000000 0.000000 0.000000 0.000000 0.000000 0.000000 0.000000 
-18.164442 16.371600 -0.042777 125.637080 82.521871 139.283723 -6.998735 2.458592 8.583295 -18.178189 -16.573002 -44.355984 -3.055482 0.527089 18.832915 0.425419 3.781321 5.974648 1.646700 0.000000 -29.596600 12.207610 -5.094517 0.536807 -0.016502 -14.676912 6.484643 -0.480936 -1.871662 27.400298 -0.742992 10.210809 33.885402 6.980800 0.000000 -75.287400 -9.264809 3.852730 -10.765190 -3.620182 4.540899 -5.075717 -7.834214 4.519612 1.343182 11.497232 -3.823812 -8.461775 -3.470135 -0.275114 -0.241566 0.000000 0.000000 0.000000 0.323389 29.322660 1.475054 -43.189789 13.182987 -16.100543 -4.430613 -20.775474 0.007233 8.882554 1.107171 0.093142 -0.178167 -0.063517 -0.000000 0.000000 0.000000 0.000000 0.000000 0.000000 0.000000 16.922335 6.501469 -1.740131 73.542480 23.644529 33.550179 1.257002 70.766176 0.008356 0.119833 9.231633 0.010725 0.019557 -0.497469 -0.000000 0.000000 0.000000 0.000000 0.000000 0.000000 0.000000 
